<?xml version="1.0" encoding="UTF-8"?>
<svg version="1.1" xmlns="http://www.w3.org/2000/svg" width="512" height="512">
<path d="M0 0 C1.26070313 -0.05607422 1.26070313 -0.05607422 2.546875 -0.11328125 C8.64226144 0.8468302 13.00427341 5.77670183 17.19708252 10.00561523 C17.76432816 10.5697409 18.33157381 11.13386656 18.91600871 11.71508694 C20.80456946 13.59570706 22.68594407 15.48335058 24.56738281 17.37109375 C25.92419764 18.72519703 27.28143725 20.0788748 28.6390686 21.43215942 C32.31697225 25.10095803 35.98853669 28.77603958 39.65871525 32.45256424 C43.50115083 36.30006746 47.34846836 40.14268396 51.19500732 43.98608398 C57.65118586 50.43862599 64.10314033 56.89536917 70.55273438 63.35449219 C78.01191902 70.82456998 85.4782938 78.28740305 92.94842649 85.74653149 C99.36240072 92.15143494 105.77247567 98.56022123 112.17929721 104.97227955 C116.00576207 108.80186407 119.83356928 112.63008055 123.6648941 116.45480347 C127.26450746 120.04864675 130.85920681 123.64733349 134.45014572 127.2498436 C135.76986224 128.5722081 137.09129013 129.89286715 138.41453171 131.21170425 C140.21796434 133.00968585 142.01514554 134.8136916 143.81085205 136.61938477 C144.33788451 137.14195579 144.86491698 137.66452681 145.40792012 138.20293331 C149.52291389 142.36254694 151.53345462 145.31028629 151.625 151.1875 C151.65335937 152.00992188 151.68171875 152.83234375 151.7109375 153.6796875 C150.65413936 159.71597521 145.78342974 164.07273555 141.58380127 168.25285339 C141.02249787 168.81939347 140.46119447 169.38593355 139.88288188 169.96964151 C138.01160156 171.85585473 136.13330866 173.7349184 134.25488281 175.61401367 C132.90729227 176.96923001 131.56010401 178.32484648 130.21328735 179.68083191 C126.56105856 183.35496638 122.90231407 187.02254342 119.24166203 190.68828368 C116.95372291 192.97986988 114.66708659 195.272748 112.38088226 197.56606483 C104.40188748 205.56953686 96.41720338 213.56728716 88.42773438 221.56030273 C80.98481758 229.00685723 73.55514334 236.46644846 66.13136411 243.93207759 C59.75197187 250.34616613 53.36298932 256.75059609 46.96657443 263.14770871 C43.14860888 266.96646705 39.33472229 270.78909439 35.53061676 274.62166405 C31.95307476 278.22537604 28.36375046 281.81692146 24.76508713 285.39953804 C23.44821572 286.71459438 22.13558898 288.03391745 20.82761765 289.35782623 C19.03783211 291.16807929 17.23320223 292.96214423 15.4241333 294.75309753 C14.91321365 295.27721716 14.40229399 295.80133678 13.87589192 296.34133881 C10.19232182 299.94150822 6.33576293 302.23014006 1.25 303.3125 C-4.63315241 302.93702128 -8.74388864 300.69127289 -12.75 296.3125 C-17.00278299 288.48950237 -16.1319819 279.2949059 -16.04296875 270.68359375 C-16.03736409 269.08220316 -16.03309811 267.48080739 -16.03010559 265.87940979 C-16.0187252 261.69214335 -15.98931786 257.50519581 -15.95599365 253.3180542 C-15.92514484 249.03434562 -15.9115688 244.75058484 -15.89648438 240.46679688 C-15.8644406 232.08188593 -15.81332815 223.69723279 -15.75 215.3125 C-16.32499741 215.31526538 -16.89999481 215.31803076 -17.49241638 215.32087994 C-31.50678217 215.38723754 -45.52112429 215.43682803 -59.53561401 215.46793652 C-66.31302546 215.48338162 -73.09033181 215.50442576 -79.86767578 215.53881836 C-86.40991825 215.57200197 -92.95209261 215.58936087 -99.49441528 215.59713173 C-101.98863441 215.60266865 -104.48284766 215.61348087 -106.97702026 215.62969017 C-110.4743941 215.65151227 -113.97131887 215.65446485 -117.46875 215.65307617 C-118.49662125 215.663862 -119.52449249 215.67464783 -120.58351135 215.6857605 C-128.04726296 215.65375742 -134.01281742 214.93067464 -139.625 209.5625 C-143.73696587 203.27361103 -144.04564535 197.11967948 -144.0246582 189.84814453 C-144.02976913 188.92523621 -144.03488007 188.00232788 -144.04014587 187.05145264 C-144.05398793 184.01600568 -144.05308908 180.98078717 -144.05078125 177.9453125 C-144.05467125 175.82453325 -144.05900655 173.70375477 -144.06376648 171.58297729 C-144.07121721 167.14302034 -144.0709458 162.70314293 -144.06567383 158.26318359 C-144.0598821 152.58850696 -144.07680881 146.91415703 -144.1000185 141.23953438 C-144.11478883 136.86076979 -144.11562302 132.48208328 -144.11250877 128.10329819 C-144.11302037 126.01183297 -144.11822757 123.9203632 -144.12832069 121.82892227 C-144.14073114 118.89761709 -144.13386565 115.96694052 -144.12231445 113.03564453 C-144.12995819 112.18132843 -144.13760193 111.32701233 -144.14547729 110.44680786 C-144.09250309 104.32933255 -143.42642919 97.66002302 -139.47508717 92.71791267 C-132.89823865 86.73037957 -125.01728058 87.02675502 -116.67407227 87.08544922 C-115.58065018 87.08515717 -114.48722809 87.08486511 -113.360672 87.08456421 C-109.76250145 87.08595261 -106.16454043 87.10149098 -102.56640625 87.1171875 C-100.06534437 87.12091936 -97.56428103 87.12376552 -95.06321716 87.12576294 C-89.16311406 87.13260745 -83.26308777 87.14835508 -77.36301607 87.16846192 C-69.9822584 87.19306543 -62.60149134 87.20376377 -55.22070312 87.21484375 C-42.06376423 87.23626974 -28.90688685 87.27000294 -15.75 87.3125 C-15.75999275 85.98944603 -15.75999275 85.98944603 -15.77018738 84.6396637 C-15.83047566 76.29844286 -15.87606414 67.95729595 -15.90543652 59.61590672 C-15.92104516 55.32823398 -15.94219488 51.04074236 -15.97631836 46.75317383 C-16.00908417 42.60993118 -16.02688907 38.46686197 -16.03463173 34.32349968 C-16.0401445 32.74836436 -16.05090913 31.17323777 -16.06719017 29.59817696 C-16.25973329 10.18665581 -16.25973329 10.18665581 -11.29777527 4.70948792 C-7.53934125 1.44887341 -4.88598661 0.14065719 0 0 Z " fill="#FFFFFF" transform="translate(299.75,104.6875)"/>
<path d="M0 0 C1.76449103 -0.00322009 3.5289818 -0.0065847 5.29347229 -0.01008606 C8.9670575 -0.0160339 12.64061931 -0.01793009 16.31420898 -0.01733398 C21.01716112 -0.01723173 25.71996443 -0.03096807 30.42288113 -0.04810619 C34.0560017 -0.05921964 37.68908593 -0.06125352 41.32222176 -0.06072426 C43.05694156 -0.06190211 44.79166236 -0.06631296 46.52636528 -0.07405663 C48.94533754 -0.08385847 51.3639814 -0.08097955 53.78295898 -0.07495117 C54.49418915 -0.08057068 55.20541931 -0.08619019 55.9382019 -0.09197998 C61.06436812 -0.05953269 64.81236874 0.47643124 68.50390625 4.16796875 C70.85240433 10.59622951 70.75067334 21.07571839 68.25390625 27.48046875 C66.320316 30.44991092 65.76953028 31.02576388 62.50390625 32.16796875 C59.62442695 32.35740379 56.84151792 32.43799892 53.96264648 32.42333984 C53.10191025 32.4269603 52.24117401 32.43058075 51.35435486 32.43431091 C49.4861043 32.44120026 47.61783363 32.44371121 45.74957085 32.44236374 C42.7846562 32.44139717 39.82010281 32.45435875 36.85523987 32.47134399 C28.42557624 32.5175598 19.99594806 32.54219547 11.56616211 32.54882812 C6.40666842 32.55386618 1.247549 32.57823771 -3.91181755 32.61415482 C-5.87041913 32.6239052 -7.82907252 32.62631097 -9.78769112 32.62098312 C-24.3641255 32.58321332 -36.55805258 33.35375446 -47.49609375 44.16796875 C-57.46511844 55.88254251 -57.94005376 67.14789619 -57.90014648 81.82373047 C-57.90585468 83.71852012 -57.91282068 85.61330633 -57.92094421 87.50808716 C-57.93884176 92.63627828 -57.93771354 97.76429796 -57.93200183 102.89251089 C-57.92890481 107.18161465 -57.9350082 111.47068572 -57.94104058 115.75978482 C-57.95507325 125.88269035 -57.95353519 136.00551147 -57.94213867 146.12841797 C-57.93066075 156.55367129 -57.9447306 166.97866726 -57.97153515 177.40388668 C-57.9937243 186.37148783 -58.00032221 195.33900838 -57.99445873 204.30663502 C-57.99109542 209.65515821 -57.9934626 215.00351648 -58.01070976 220.35201645 C-58.0262279 225.38365738 -58.0221694 230.41491846 -58.00340462 235.44654465 C-57.99973209 237.28669667 -58.00278797 239.12687715 -58.01329041 240.96700287 C-58.08723244 255.00034285 -56.87495334 266.67026725 -46.49609375 277.16796875 C-38.07579553 284.33358677 -29.64899167 287.64105303 -18.63085938 287.55273438 C-17.37773201 287.56079353 -17.37773201 287.56079353 -16.09928894 287.5690155 C-14.30207111 287.57872941 -12.50480672 287.58175718 -10.70756531 287.57865906 C-7.85612944 287.5741456 -5.00530265 287.58827975 -2.15393066 287.60705566 C3.89867206 287.64367486 9.9512091 287.65752251 16.00390625 287.66796875 C23.02295681 287.68008281 30.04170716 287.70175194 37.06062317 287.74797058 C39.8573919 287.76146418 42.65377346 287.75738464 45.45056152 287.75256348 C47.17993654 287.7619107 48.90930736 287.77208117 50.63867188 287.78320312 C51.40568924 287.7770549 52.1727066 287.77090668 52.96296692 287.76457214 C58.58099237 287.82757869 63.27901389 289.14141863 68.50390625 291.16796875 C70.2423368 298.4862006 71.04144017 308.31468861 68.25390625 315.48046875 C66.33314315 318.43021209 65.7374384 319.0157313 62.50390625 320.16796875 C59.85633339 320.35839108 57.31534975 320.44127335 54.66870117 320.42675781 C53.8826651 320.43026245 53.09662903 320.43376709 52.28677368 320.43737793 C49.68588433 320.44618318 47.08526719 320.44034413 44.484375 320.43359375 C42.66514535 320.43494223 40.84591605 320.43688429 39.02668762 320.43939209 C35.20598941 320.44234295 31.38538462 320.4380524 27.56469727 320.42871094 C22.70778657 320.41740547 17.85109911 320.42381902 12.99419689 320.43585587 C9.23025392 320.44315201 5.46636205 320.44074983 1.70241737 320.43560028 C-0.08543614 320.43428044 -1.87329454 320.43585199 -3.66114235 320.44055939 C-30.04589125 320.49471324 -51.19175 316.39108805 -70.49609375 297.16796875 C-71.23988281 296.45898438 -71.98367187 295.75 -72.75 295.01953125 C-89.57586797 277.8314626 -90.64924647 254.49265364 -90.64135742 231.84912109 C-90.64435495 230.12140837 -90.64775883 228.39369631 -90.65153503 226.66598511 C-90.66032003 222.00035097 -90.66271085 217.33473522 -90.66335082 212.66909361 C-90.66406459 209.74535274 -90.66620509 206.82161646 -90.66884804 203.89787674 C-90.67808411 193.6726375 -90.68218521 183.44741124 -90.68139648 173.22216797 C-90.68079655 163.73205487 -90.69133632 154.24199877 -90.70714015 144.75190008 C-90.72027272 136.57058586 -90.72557798 128.38929015 -90.72494107 120.20796549 C-90.72468771 115.33663526 -90.72744849 110.46535572 -90.73811913 105.5940361 C-90.74789661 101.00566896 -90.74781416 96.41739996 -90.74060249 91.82902908 C-90.73956844 90.15909937 -90.741848 88.48916322 -90.74796295 86.81924438 C-90.77647894 78.48202053 -90.55749128 70.26132327 -89.62153625 61.97061157 C-89.54609972 61.28748536 -89.47066319 60.60435914 -89.3929407 59.90053213 C-87.14049402 41.99715051 -75.6752463 25.28782595 -61.6796875 14.33984375 C-42.44470903 1.21757623 -22.61204815 0.00977115 0 0 Z " fill="#FFFFFF" transform="translate(150.49609375,95.83203125)"/>
</svg>
